<svg id="Layer_1" data-name="Layer 1" xmlns="http://www.w3.org/2000/svg" xmlns:xlink="http://www.w3.org/1999/xlink" viewBox="0 0 500 500.69"><defs><style>.cls-1{fill:#fff;}.cls-2{clip-path:url(#clip-path);}.cls-3{fill:#4971ff;}.cls-4{fill:#2a3156;}</style><clipPath id="clip-path"><circle class="cls-1" cx="250" cy="250.34" r="250"/></clipPath></defs><circle class="cls-1" cx="250" cy="250.34" r="250"/><g class="cls-2"><rect class="cls-3" x="250" y="-0.34" width="250" height="500"/><path class="cls-4" d="M93.93,320.14a77,77,0,0,1-30.12-28.9q-10.9-18.44-10.9-41.58t11-41.6a77.8,77.8,0,0,1,30.24-28.88q19.22-10.45,43.05-10.46a90,90,0,0,1,35.3,6.74,72,72,0,0,1,27,19.56L180.6,212.79q-17.08-18.43-42-18.44a59,59,0,0,0-29,7.08,51,51,0,0,0-20,19.67,60.2,60.2,0,0,0,0,57.1,51,51,0,0,0,20,19.68,59,59,0,0,0,29,7.08q24.94,0,42-18.66l18.88,18a71.83,71.83,0,0,1-27.08,19.55A90.62,90.62,0,0,1,137,330.59Q113.15,330.59,93.93,320.14Z"/><path class="cls-1" d="M389.28,171H360.5L289.68,328.34h30.13l15.51-36.42H414l15.73,36.42h30.58Zm-44.07,98,29.45-68.79L404.34,269Z"/></g></svg>